<svg xmlns="http://www.w3.org/2000/svg" viewBox="0 0 512 512"><defs><style>.cls-1{fill:#0b090a;}.cls-2{fill:#fdfdfd;}.cls-3{fill:#070606;}.cls-4{fill:#f80a05;}.cls-5{fill:#fccc03;}.cls-6{fill:#fbcf02;}.cls-7{fill:#fccb02;}.cls-8{fill:#fcca02;}.cls-9{fill:#fdcb03;}.cls-10{fill:#fcda03;}.cls-11{fill:#fcc802;}.cls-12{fill:#fcd603;}.cls-13{fill:#fa0c06;}.cls-14{fill:#fcc902;}.cls-15{fill:#fa0c05;}.cls-16{fill:#fcd604;}.cls-17{fill:#fcc803;}.cls-18{fill:#fdd904;}.cls-19{fill:#fcc702;}.cls-20{fill:#fde003;}.cls-21{fill:#fcd503;}.cls-22{fill:#fcc601;}.cls-23{fill:#fcdf03;}.cls-24{fill:#0966e1;}.cls-25{fill:#fcce03;}.cls-26{fill:#fde102;}.cls-27{fill:#fcdf02;}.cls-28{fill:#0c63e2;}.cls-29{fill:#fae704;}.cls-30{fill:#0962e6;}.cls-31{fill:#fbf39d;}.cls-32{fill:#fad802;}.cls-33{fill:#fae705;}.cls-34{fill:#f8ee8a;}.cls-35{fill:#f7ee98;}.cls-36{fill:#f8ef8f;}.cls-37{fill:#faf38e;}.cls-38{fill:#f9f3a2;}.cls-39{fill:#f8ee85;}.cls-40{fill:#f1ea88;}.cls-41{fill:#f6ef9a;}.cls-42{fill:#f3ec9a;}.cls-43{fill:#f7f3b6;}.cls-44{fill:#f4eb8a;}.cls-45{fill:#f5ee99;}.cls-46{fill:#f7ef9b;}.cls-47{fill:#f5eb17;}.cls-48{fill:#f9ed65;}.cls-49{fill:#f7f19c;}.cls-50{fill:#f3eb91;}.cls-51{fill:#e8e197;}.cls-52{fill:#efe680;}.cls-53{fill:#eadd50;}.cls-54{fill:#f0e987;}.cls-55{fill:#ece49f;}.cls-56{fill:#f0ecb8;}.cls-57{fill:#ede7ae;}.cls-58{fill:#0a4fc5;}.cls-59{fill:#dacc4c;}.cls-60{fill:#fdf892;}.cls-61{fill:#f1e869;}.cls-62{fill:#2069d8;}.cls-63{fill:#fcf23c;}.cls-64{fill:#dde5e8;}.cls-65{fill:#dfe6ec;}.cls-66{fill:#fdf9f9;}.cls-67{fill:#fce6e5;}.cls-68{fill:#fdeae8;}.cls-69{fill:#f9afac;}.cls-70{fill:#f9bab6;}.cls-71{fill:#080706;}.cls-72{fill:#060604;}.cls-73{fill:#ede478;}.cls-74{fill:#e9de4d;}.cls-75{fill:#080805;}.cls-76{fill:#ebe387;}.cls-77{fill:#090806;}.cls-78{fill:#090808;}.cls-79{fill:#e3d75b;}.cls-80{fill:#fdf8f8;}.cls-81{fill:#0f0405;}.cls-82{fill:#fce7e7;}.cls-83{fill:#070604;}.cls-84{fill:#ded167;}.cls-85{fill:#fcf9f9;}.cls-86{fill:#0e0304;}.cls-87{fill:#fce8e9;}.cls-88{fill:#0b0a06;}.cls-89{fill:#e9e06e;}.cls-90{fill:#ede99c;}.cls-91{fill:#070707;}</style></defs><g id="Calque_2" data-name="Calque 2"><g id="Calque_1-2" data-name="Calque 1"><path class="cls-1" d="M512,512H0V0H512Z"/><path class="cls-2" d="M413.16,387.9c-21.94-5.12-43.57-11.91-66.64-10-25.16,2.11-48.63,9.93-71.57,19.89a242.59,242.59,0,0,0-26.1,13.44c-2.73,1.6-5.41,3.34-8.82,2.83a2.77,2.77,0,0,0-2.57,1.13c-4.79,5.27-10.6,4.6-16.57,2.71-17.84-5.63-36-4.8-54.28-3.11-1.93,2.43-5,1.94-7.38,2.22-12.7,1.48-25.18,4.24-37.81,6.06-5.45.79-11,1.1-15.41-3.31A17.2,17.2,0,0,1,98.8,405c-1.24-2.42-3.25-2-5.51-1.87-7,.52-13.87,0-19.27-5.41a24.73,24.73,0,0,1-7.91-12.09q0-4.62,0-9.22a19.65,19.65,0,0,1,1-8.24c2.79-9.09,3.27-18.57,4.33-28a11.16,11.16,0,0,0-3.56-9.88c-2.41-2.3-4-5.28-5.54-8.22-2.4-4-5.21-7.8-7.69-11.79C45,294.79,49,280.57,60.84,269.47A201,201,0,0,1,86.59,249a9.1,9.1,0,0,0,4.32-6.81c.57-4,.56-8,1.4-11.9.8-3.71-.65-5.86-4.34-7.13a57,57,0,0,1-25.59-17.6c-3.6-5-7.25-10-9.56-15.79-2.36-5.53-4.55-11.09-3.75-17.3-2.19-27.63,6.76-50.76,28.29-68.5,7.94-6.54,17-11.07,27.69-11,12.9.07,19.79,9.85,15.45,22-4.88,13.6,4,24,18.54,22.25,12.73-1.5,25.54-2.56,38.1,1.67,3.5,1.17,11.54-3.42,13.82-8,3.71-7.5,9.68-10.53,17.8-10.16,7.63.35,15.3.2,22.76,2.22,5.32,1.44,9.26,4.58,11.27,9.71,1,2.5,2.09,3.52,5,3.44,7.15-.21,14.35.43,21.45.25s14.32-2.54,21.51-3.75c12.08-2,24.14-2.38,36.1.91,1.27.35,2.56.76,3.89.1,6.83-3.4,14.23-3.21,21.51-3.05,13,.31,26,0,38.85,2.17,3.76.64,5.69-1.87,6.74-4.65,1.24-3.28,1.58-7.05-.08-10.26-3.48-6.73-4.76-13.4.61-19.5,5.79-6.57,13.59-6.32,21.29-4.55,10.18,2.35,18.53,8.05,25.91,15.25,21.83,21.3,29.3,53.06,18.64,79.24-5.39,13.22-14.62,23.09-26.86,30.41,16,5.69,21.43,15,19.23,32.45a150.6,150.6,0,0,1-6.55,29.1c-1.27,3.8-.87,5.78,2.83,8.35,18.54,12.91,28.33,30.59,26.38,53.58-1.79,21-17.56,38.45-38,43.9C431.9,388.48,422.55,387.75,413.16,387.9Z"/><path class="cls-1" d="M106,419.79c9.16,3.93,18.25,1.24,27.37-.26,11-1.83,22-4.14,33.23-4.71l5.13.46c-3.21,2.56-6.44,2.75-9.57,2.8-8.23.11-14.77,5.09-22.18,7.55-5.53,1.83-10.6,4-16.78,2.56-4.6-1.06-9.87,1.5-14.06-2.62C107.47,423.92,105.53,422.55,106,419.79Z"/><path class="cls-1" d="M74,397.71c8,4.34,16.51,5.13,25.69,3-.38,1.8-.65,3-.91,4.28-5.87,5.63-18.43,5.4-22.66-.24C74.5,402.56,75.32,399.87,74,397.71Z"/><path class="cls-3" d="M417.84,225.65c5.54.41,10.52.66,15.46,1.15,10.1,1,14.63,5.86,14.75,15.89.18,14.86-3.6,28.94-8.9,42.65-1.25,3.24-1,4.6,2.5,6.2,22.12,10.22,34,35,27.23,57.64-5.27,17.58-18.5,26.55-35.95,29.85-13,2.46-25.57-.53-37.88-4.13-29.94-8.75-59.48-6.63-88.93,2.22a280.7,280.7,0,0,0-56.79,24c-6,3.36-11.49,6.47-17-.67-.74,1.89-.17,2.93.08,4,1,4.34-2,7.38-6.13,6-24.12-7.78-48.58-6.34-73.09-2.75-11.52,1.68-23,3.6-34.5,5.51a11.55,11.55,0,0,1-4.9-.18c-6.51-1.62-8.28-7-3.77-11.91,5.36-5.85,10.85-11.59,16-17.77-7.91,2.43-15.26,6.08-23.28,7.88-5.07,1.14-10.08,2.15-15.3,1.8-9.75-.66-14.87-7.12-12.18-16.31,4.34-14.82,6-30,6.84-45.28.06-1.09.81-2.13-.77-2.91-5.25-2.56-7.66-7.67-10.65-12.24-2.81-4.32-5.71-8.6-8.35-13-5.32-8.93-4.63-15.9,2.44-23.6a131.06,131.06,0,0,1,29.84-24c3.51-2.08,5.79-4.26,6-8.62.51-9.15,1.41-18.27,2.21-27.39.19-2.14-.23-3.31-2.72-3.68-25.57-3.78-43.28-27.52-42.84-52.47.45-25.11,11.32-44.71,33-57.86a32.39,32.39,0,0,1,13.7-4.32c7.46-.77,10.87,3.9,8,10.83-5.57,13.42.08,26.25,13.63,31.71a31,31,0,0,0,16.79,1.68c11.95-1.77,23.89-2.23,35.37,2.66a2.67,2.67,0,0,0,2.35.19c7.54-3.5,15.54-6.47,19.34-14.77,1.63-3.57,4.36-4.73,8-4.79A119.7,119.7,0,0,1,224.9,130c8.87,1.13,12,5.67,10,15.07l9.33-.42c8.64-.36,17.3-1.13,25.89.62,1.75.36,3.22-.49,4.79-.91,15.25-4.05,30.69-6.22,46.38-3.4,5.67,1,10.42,1.85,16.51-.6,8.39-3.37,18.11-1.92,27.23-1.16,10.26.86,20.64.24,30.8,2.35,1.63.34,2.42-.82,3.41-1.63a21.88,21.88,0,0,0,5.85-26.59c-1.48-3.16-2.63-6.49-.16-9.37s6-3,9.64-2.52a38.93,38.93,0,0,1,17.7,7.57c30.58,22.22,37.07,65,15.34,90.12-6.57,7.59-14.59,13.25-24.29,15.93-4.51,1.25-6.37,3.27-5.47,7.82A15.64,15.64,0,0,1,417.84,225.65Z"/><path class="cls-4" d="M435.34,322.51c3.79-4.39,4.05-4.38,7.65,0,2.95,3.57,4.1,7.9,5.43,13.19,1.76-6.52.88-12.19-3.27-15.69-5.2-4.38-4.24-8.53-2-13.42,10.41,3.48,17.39,17.56,16,32.28a24.82,24.82,0,0,1-21.91,22.77c3-3.72,7-6.36,9.26-12-4.93,4-9.2,6.53-14.27,7.65s-9.8.11-15.27-.37c2.36,3.61,6,4.81,9.38,7.87-13.31,1.05-22.39-6-33-13.22,2.1,3.73,3.43,6.1,5.34,9.48-11-3.87-18.31-12.16-28.84-16.28,1.61,3.79,4.31,6,5.19,9.8-6-1.61-11.57-3.48-17.3-4.59-20.6-4-41.11-2.48-61.52,1.62-5.88,1.18-11.92,1.88-17.46,4.16-7.31,3-14.32,2.9-22-2,1.37,3.88,4.44,4.52,5.13,7.3-5.13,1.63-9.54-.85-14.87-2,1.55,2.08,2.72,3.66,4.16,5.61-5.87,1.86-10.41-2-15.78-2.73.9,2.79,4.27,3.55,4.34,6.68-5.74.57-10.53-2.92-16.59-2.7l8.18,6.48c-5.49,2.3-9.62.2-13.91-.52-1.6-.27-3.75-2.1-4,1.64,0,.56-2.61,1-4,1.44a110,110,0,0,0-17,6.13c8.51,4.92,17.3,8.22,23.26,15.84-30.41-6.93-60.34-3.3-90.48,2.44,20-22.91,43.24-40.93,73.91-51-6,8.1-11,15.19-15.08,24a352.25,352.25,0,0,1,37.47-15.93c31.89-11.36,64.22-21,98-25,25-2.94,49,.53,72.48,9.74,10.58,4.16,21.74,6.64,33.25,3.83C436.48,342.28,440.75,332.58,435.34,322.51Z"/><path class="cls-5" d="M94.1,346q1.34-11.66,2.66-23.29c4.9,2.09,4.75,6.39,4.41,10.57-.47,5.64-1.74,11.2-1.71,16.89,0,1.76-.3,3.61,1,5.46,2.32-1.66,2.85-3.95,2.89-6.26.24-16.74,3.73-33.06,6.24-49.51.92-6,3.52-8.64,9.16-9.25,1.91,1.48,1.44,3.52,1.14,5.43-.48,3.08-.6,6.21-1.13,9.29-.27,1.53-.88,3.36,1.37,4.13,3.3.18,5.69-2.49,8.83-2.79a13.56,13.56,0,0,0,8.27-4.21c3.28-3.29,6.61-6.51,10-9.66,3.86-3.55,4.47-8.72,5.39-13.61,1-5.25,3.22-6.38,8.45-4.26,2,7.52-1.46,13.59-5.28,19.46-3.2,4.9-7.43,8.94-12.49,13,2.59.47,4.76.7,6.84,1.26,6.85,1.82,9.72,5.31,10.11,12.36.72,12.93-4.48,23.7-12.83,33a59.58,59.58,0,0,1-20.16,15.17c-1,.43-1.74.8-2.62.42,9.94-8.54,18.92-17.9,24.16-30.42-14.06,17.26-31.3,29.65-52.86,35.59-3.5-2.21-3.46-5.58-3.33-9.21C92.83,359,94.9,352.62,94.1,346Z"/><path class="cls-6" d="M432,298.93c2.57-.19,1.17,1.6.91,2.27-1.69,4.5-3.53,8.94-5.37,13.38a3,3,0,0,1-3,2.1,284.73,284.73,0,0,0-34.42,1.51c2.41-4.73,6-7.44,9.09-11-1.41-1.08-2.64-2.14-4-3-3.25-2.15-4.22-5-4-8.93.8-13.11,1.1-26.25,1.84-39.37.24-4.15-.22-7.85-3.22-10.93,1-3.27,4-3.71,6.69-4.4,8.25-2.14,16.7-2.26,25.16-2.17,2.73,0,5.72.6,7.86-2l5.4.73c-1.06,5.34-2.13,10.46-3.06,15.59-.44,2.45-2.08,2.53-4,2.56-5.45.09-10.9.44-16.35.39-2.86,0-3.77,1-3.6,3.76.19,3.13.07,6.27.08,9.4,3.18,1.59,6.39-.19,9.58.1,2.71.24,5.56-.76,8.12.87a4.6,4.6,0,0,1,0,1c-2.44,12.26-2.43,12.46-15,12.8-4,.11-5.05,1.44-4.9,5.14a91.4,91.4,0,0,1-.58,9.89c2,1.75,4.4.78,6.56.75C418.49,299.28,425.26,300.1,432,298.93Z"/><path class="cls-7" d="M397,151.33c3.58.3,1.86,3.1,1.81,4.58-.56,19.14-.83,38.27.28,57.4.19,3.29.37,6.59.55,9.94-4.79-.47-4.79-.47-7.14-11.15l-.29.66c-1.13,2.65,1.62,6.9-2.57,8.1-5.36,1.52-11.74-1.1-14.33-5-5.73-8.58-10-17.95-15.12-28.51-.8,11.53,1.2,21.53,2.05,32-6.66-1.14-11.86-4-17.08-6.86-1.23-.67-1-2-1-3.14q0-16.23,0-32.44c2.07.09,1.46,1.6,1.5,2.74a18.57,18.57,0,0,1,2-3.34c4.45-6.78,8.62-7.05,14-.89.43.5.82,1,1.23,1.54,4.08,5,4.81,5.1,10.13,1.72,2.33,4.77,4.67,9.53,7.58,15.49.22-3.3.34-5.29.47-7.27,2.17.13,1.84,2,2.23,3.3.32,1.1.33,2.42,1.8,2.65a3.46,3.46,0,0,0,3.37-1.68,10.16,10.16,0,0,0,1.64-4.13c1.77-8.09,4-16.14,3.38-24.53-.3-3.78,2.53-6.4,3-9.84A2.18,2.18,0,0,1,397,151.33Z"/><path class="cls-8" d="M260.86,153.28c2.39-.59,4-.34,4.65,2.66,4.79,22.59,10.41,45,16.5,67.71-5.6,1.63-11.25,1.85-16.79,2.67-1.49.21-2.13-.46-2.36-1.84a11.6,11.6,0,0,0-.59-1.9c-1.11-3.08-.33-8.43-3-8.94-4.3-.82-9.12.94-13.69,1.73-2.08.37-1.52,2.27-1.75,3.66-1.66,9.79-1.65,9.81-11.24,11.78-3,.62-6.09,1.11-9.68,1.75,2.71-12,5.3-23.46,7.89-34.91,3-2.44,5.86-5.13,10-5.54,2-.2,3.93-.38,5.45,1.32a16.15,16.15,0,0,1,1.29,2.34c3.13,1.3,6.05,1.58,8.29-1.61.12-.7.23-1.4.38-2.1.69-2.95.29-5.94.28-8.91a17.87,17.87,0,0,1,2.17-9.55,9.71,9.71,0,0,0,0-10.37c-1.32-2.37-2.47-4.79-.58-7.42A4.43,4.43,0,0,1,260.86,153.28Z"/><path class="cls-9" d="M332.91,183.91c-2.4,6.31-7.3,10.09-13.59,13.06,11.58,12.63,25.1,22.16,41.32,30.48A247.87,247.87,0,0,0,332.89,232c-2.38.5-3.77-.89-5.27-2.15a102.79,102.79,0,0,1-20.16-22,21.88,21.88,0,0,0-5.42-6.06c.41,4.87.64,9.77,1.31,14.6.55,3.93.15,6.25-4.76,6-3.95-.17-7.95.62-12.59,1.05-.31-11.7-.62-23.11-.92-34.52,4.08-1.28,6.55-4.14,8.08-8,.85-2.14,1.78-4.32,3.73-5.72s3.7-1,4.91,1.19c1.32,3.79-.38,8.15,2.2,11.7,2.12,2.55,4.59,1.3,6.85.46,6.1-2.26,12.48-3.44,18.77-4.94C330.75,183.33,331.9,183,332.91,183.91Z"/><path class="cls-10" d="M161.05,274.91c-4.64-.49-7,.48-7.46,6.22s-2.18,11.61-8.19,15.14c-3.17,1.86-5.27,5.47-8.13,8-2.36,2.06-5.07,3.82-8.49,3.65.85-4.12,5.06-5.3,7.3-8.24,1.83-2.4,4-4.48,2.83-7.85-1.5-3.81-4.46-4.49-8.1-3.94-4.09.61-7.8,2.67-11.94,3.08-8.94,1.94-7.64,9.68-8.84,15.86-2.8,14.47-5.09,29-5.13,43.8a5.36,5.36,0,0,1-.56,2.4c-1.13,2.12-1.65,5.74-4.41,5.37-3.38-.46-1.79-4.07-1.94-6.31-.41-6,.59-11.89,1.71-17.75a13.1,13.1,0,0,0-2.94-11.62c0-.35.08-.69.13-1,2.63-6.4,2-13.11,1.87-19.79l.86-3.14c-4.17,2.5-8.38,6.7-12.2-.47.92,4.62,3.86,8.29.74,12.57-3-4.89-6.19-9.87-8-15.63,6.09-3,11.54-7.33,17.86-9.61,6.81-2.47,12.74-6.37,19.12-9.51,6.56-3.23,13.67-5.08,20.78-6.85,3.75-.93,8.17.3,11.16-3.25C155.79,266.13,159.3,268.75,161.05,274.91Z"/><path class="cls-11" d="M176,164.91c2,6.78-.85,12.34-4.46,17.65-2.34,3.42-5.48,6.15-9.08,9.07a27.83,27.83,0,0,0,2.82.81c10.77,1.71,14.08,9.3,13.31,18.42-1.41,16.8-10.53,29-24.85,37.5a5.2,5.2,0,0,1-1.81.63,8.74,8.74,0,0,1-1.94-.26c6.78-6.87,13.12-13.74,16.57-22.81A132,132,0,0,1,128,254.17c-1.75-3,.77-4.29,2.59-5.42,3.35-2.08,4.53-4.54,2.88-8.31s-.11-6.31,3.71-7.67c5-1.78,10.09-3.39,14.31-6.75,3.89-3.09,6.94-6.69,5.31-12.24-1.07-4.37-4.12-5.28-8.24-5.56-4.51-.3-8.68,2.79-13.22.93-4.57-6.41-4.29-13.67-3.45-21a4.31,4.31,0,0,1,4-3.86c2.71.68,2.22,2.9,2.14,4.77-.07,1.52,0,2.67,1.93,2.44,4.44,0,7.48-4.23,12-4,3.12,2.66,5.2,2.14,8.13-1.06,5.27-5.72,9.87-11.47,11.19-19.43C171.6,165,172.42,161.23,176,164.91Z"/><path class="cls-12" d="M158,213.92c1.36,4.37-1.19,10.41-5.23,13.1a68.14,68.14,0,0,1-15.7,7.25c-3.4,1.19-4,3-2.3,6,2.33,4.14,1.43,7.23-3,9.25-2,.91-3.89,2-3.82,4.66C113.91,263,99.88,271.86,87.48,283c-3,2.66-5.78,5.46-8.83,8.36a8.87,8.87,0,0,1-3.32-5.27,149.8,149.8,0,0,1,25.38-23.27c3.4-1.9,6.1-4.84,9.76-6.37,1.89-.79,2.45-2.46,2.55-4.47.13-2.64.56-5.28.86-7.91,2.43-5.29,2-10.84,1.41-16.39Q116.66,211.89,118,196a2.87,2.87,0,0,1,2.37-.95,3.08,3.08,0,0,1,2.75,3.08c.6,8.32-1.43,16.31-2.17,22.78a23.4,23.4,0,0,0,2.43-12c-.49-9.08,1.08-17.91,3.31-26.62,1.66-6.44,6-9.18,11.53-7.64,1.76,3.7,1,7.05-1.41,10.18-2.74.48-3.8,2.23-3.89,4.9-.24,6.66.38,13.18,3.1,19.36,0,4.77-.83,9.48-1.3,14.21-.27,2.61-.89,5.2.4,8.49a34.52,34.52,0,0,0,19.19-13.55C155.45,216.77,155.81,214.55,158,213.92Z"/><path class="cls-13" d="M77.28,183.38c-6.89-8.61-8.45-18.7-7.09-29.15,2.14-16.54,9.52-30.31,23.39-40.12,2.67-1.89,5.38-3.81,9.22-4.25.19,2.85-1.46,4.86-2.33,7-4.94,12.3-2.36,25.54,7.19,34.31,3,2.74,4.6,4.86,1.12,8.27a5,5,0,0,0-1.54,4.09c-2.48,7.14-7.45,11.77-14.43,14.39-2.1.31-4.07,0-5.41-1.78-1.2-1.55-1.67-3.15.82-3.74-6.16-1.09-10.79-7.68-11.45-16.23.89,7.09,1.7,14.19,6,20.3,1.06,1.49,2.1,3.08,1.24,5.09C82.25,184,80.06,184.8,77.28,183.38Z"/><path class="cls-14" d="M386.75,266.94c-1.31,7.68-6.16,12.62-13.2,16.66,3.05,3.92,5.93,7.87,9.09,11.59s6.49,7,9.93,10.69c-4,4.19-8.14,8.49-13,11.92-10.1-7.67-14.83-19-21.15-30.09,0,7.3-.17,13.7.07,20.08.11,3-.86,4.13-3.83,4.29-3.29.18-6.55.85-10.15,1.35-.81-4.71-.5-9.13-.33-13.54.56-8.15.15-16.32.39-24.49a3,3,0,0,1,.4-1.89c4.56-5.41,8-11.61,12-17.39.44-.63,1.15-.32,1.62.27,1.95,5.75.49,11.69,1.05,17.5,0,2.85,1.55,2.77,3.64,1.94,2.5-1,4.33-3.07,6.81-4.1,4.49-1.28,9.28-1.71,13.1-4.89A2.56,2.56,0,0,1,386.75,266.94Z"/><path class="cls-15" d="M407.18,155.75a3.39,3.39,0,0,1,1-2.69c12.76-12,13.64-25.86,6.56-41a14.21,14.21,0,0,1-.54-1.72c1.35-.92,2.44-.37,3.49.1,23.73,10.69,38.47,44.44,26.56,68-.73,1.45-1.12,3.22-3,3.75-2.65,1.29-4.84.62-6.69-1.52-.7-1.56-.14-2.93.7-4.22A37.24,37.24,0,0,0,441,158c-.57,4.42-2.38,9.7-8,12.63-1.33.69-.64,1.4-.84,2.24-.85,3.64-4,3.26-6.84,3.16C416.17,172.06,411.45,164.11,407.18,155.75Z"/><path class="cls-16" d="M332.91,183.91c-7.75,2.7-16,3.62-23.68,6.61-1.84.71-5,2-6.26-1.58,2.83-2,6.29-2.9,8.82-5.42,2.17-2.16,4-4.44,4.54-7.54.43-2.8,0-5.44-2.71-6.93-3-1.63-6.23-2.41-9.57-1.1-1.42.56-1.54,2-1.7,3.38-.18,1.62.08,3.38-1.44,4.58-2.7-1.7-3.92.17-5,2.15-1.48,2.75-2.63,5.7-4.31,8.31-1.43,2.24-3.38,4.22-6.54,2.57-.35-5.08-1.2-10.2-.92-15.25.31-5.63-1-10.2-5.31-13.86.15-3.34,2.92-4.15,5.26-5.17a56.81,56.81,0,0,1,17.24-4.18c9-1.31,17.66.72,26.2,3.38C335.78,157.91,339.07,174,332.91,183.91Z"/><path class="cls-17" d="M334.31,277.06c-1.81,4.93-5.95,7.77-10.25,10.92,2.95,3.67,5.71,7.16,8.51,10.6s6.62,6,10.4,9c-3.62,3.23-7.23,6.18-10.49,9.47-2.44,2.47-4.24,2.15-6.65,0-5.65-5.08-9.83-11.24-13.63-17.71-1.08-1.82-2.19-3.63-3.68-6.12,0,6.87-.15,12.9.06,18.92.1,2.93-.42,4.59-3.76,5.07-3.56.52-7,1.78-11.67,3V275c3.33,1.59,1.85,4.24,1.68,6.9,3-4.76,9.05-5.66,12.22-10.2,2.42.48,2,2.55,2.25,4.18s0,3.57,1.66,4.76c3.72,2,5.44-2.83,8.65-2.53,2.91.3,5.55-.67,8.23-1.6C330,275.79,332.31,274.94,334.31,277.06Z"/><path class="cls-18" d="M219.39,187.3a1.63,1.63,0,0,1,.09.48c-1.54,13.68-1.53,13.7-16.27,16.25-2,.34-4.1.13-4.36,2.9-1,2.18-3,2.32-5,2.46a8.3,8.3,0,0,0-5.34,2.15c-1.18,1.1-2.55,2.53-4.28,1.54-1.51-.87-.64-2.7-.79-4.1a4.53,4.53,0,0,1,.35-2.4,212.31,212.31,0,0,1,.87-23.25c.37-4.57.81-9.23-1.68-13.48a7.22,7.22,0,0,1,6-5.29c10.78-2.3,21.48-5.07,32.49-6.16,1.94-.2,4-.85,5.37,1.29a3.69,3.69,0,0,1,.06,1c-2,11.72-2,11.72-13.75,14-1.13.23-2.27.42-3.4.66-8.83,1.85-10.54,4.3-9.35,13.11.21,1.54,1.27,1.17,2.14,1.36C208.21,189.29,213.74,187.94,219.39,187.3Z"/><path class="cls-19" d="M200.71,303c.12,4-.36,8,.63,11.89.94,3.73,2.51,7.16,6.7,8.19s6.4-2.12,8.73-4.67c2.58-2.82,2.83-6.64,4.16-10.3-3.88-.69-7.07,1.92-10.8,1.66-.68-2.9-.25-5.85.07-8.79,2.73-2.82,6.53-2.74,10-3.65,4.88-1.31,9.78-2.54,14.75-3.47-.6,11.95-2,23.85-1.77,35.84,0,2.11-1.07,2.88-2.8,3.48-2.33.81-4.59,1.8-7.3,2.88V325.79c-2.39,3.86-4.07,6.41-6.34,8.46-10,9-22.75,6.57-28.23-5.7a39.89,39.89,0,0,1-2.66-24.84c2.62,2.32.73,5.66,2.06,8.82,2.44-4.1,5.25-7.21,10-4.11C199.56,306.74,197.65,303.62,200.71,303Z"/><path class="cls-20" d="M137.87,174.91c-6.28.49-8.58,2.89-10,8.94a104,104,0,0,0-2.94,28.59c.17,4.09-1.8,7.49-4.5,12-1.07-7.31.73-13,1.07-18.86.2-3.26,2.67-7.18-1.72-9.71-1-5.71.58-11.29.87-16.94.09-1.64.35-3.22-.28-4.79-.67-2.83-3.68-4.29-4.19-7.21,7.6-5.47,16.57-7.31,25.41-9.29,6.26-1.39,12.63-2.8,19.17-1.8a3.25,3.25,0,0,0,3.4-1.5c6.19,1,10.65,4,11.83,10.6-1.55-.85-2.93-1-3.2,1.23-1.09,9.24-6.51,15.88-12.68,22.33-3.91,4.08-4.62,4.43-8.16-.5a1.38,1.38,0,0,1-.32-1.27,10.3,10.3,0,0,1,3-3.69c2.12-1.9,2.32-4.07,1.3-6.53-.78-3.14-3-4-6-4.2C145.64,172.05,141.74,173.33,137.87,174.91Z"/><path class="cls-21" d="M279.94,258.18c8.11,8.45,8.29,19.05,8,29.77-4.5.71-9.11-1.53-13.63.87-2,1.05-2.33-1.19-2.57-2.62-.45-2.76.34-5.67-1-8.33-.65-1.53-1-3.17-1.62-4.7-2.13-5-6.29-5.53-9.37-1-3.47,5.12-4,11.15-4.41,17.11-.35,4.61.58,9.27-.63,13.85-5.51,3.76-11.23,2.66-16.71-3.2-1.05-9.54-.18-18.82,3.65-27.72,2.68-1.35,3.64-4.18,5.4-6.31,3.57-4.3,7.58-7.91,13.14-9.39,5.74-1.49,11.4-1.57,16.84,1.14A7,7,0,0,0,279.94,258.18Z"/><path class="cls-11" d="M238.05,300c.94.21,2.38.09,2.74.66,3.63,5.75,8.73,2.2,13.23,2.25,2.51.32,2.1,2.64,2.8,4.16.9,2,1.52,4.27,4.11,4.47s3.92-1.6,5.11-3.44c3.68-5.66,4.08-12.12,4.55-18.6.27-3.85-1.28-8,1.48-11.5,2.07,3.13.05,6.78,1.37,10.37,4.77-4,9.65-2.62,14.54-.37-.22,13.79-3.58,26.37-14.61,35.66-10,8.43-28.54,9.21-33.49-10.39C238.78,308.87,237.62,304.52,238.05,300Z"/><path class="cls-16" d="M334.31,277.06a12.68,12.68,0,0,0-7.07,1.16c-2.59,1.19-5.33,2.68-8.28.73-.74-1.18-.35-2.41-.19-3.64s.73-2.21,1.05-3.32c1.73-6.08-1.1-9.31-7.45-8.63-2.3.25-3.72,1.17-4,3.61-.17,1.62.07,3.38-1.28,4.69,0,2.24-.32,4.15-3.09,4.83-3.94,1-6.27,4.53-9.43,7-1.47-3,.43-6.05-1.45-8.49a23.28,23.28,0,0,1-.2-3.9c.57-5.15-.42-9.67-4.8-13,10.74-7.78,22.41-11.64,35.76-8.49a22.66,22.66,0,0,1,10,5.17C338.54,262.16,338,269.58,334.31,277.06Z"/><path class="cls-21" d="M358.27,256.09c-3.95,6-6.68,12.93-12.42,17.73a1.76,1.76,0,0,0-.49,1.31c.79,7.68-1.15,15.3-.46,23,.05.57-.46,1.19-.71,1.78-.33-12.73-.79-25.46-.9-38.19,0-4.08-.23-7.8-3.54-10.65,4-6,10.45-7.29,16.75-8.23,9.38-1.39,18.46-.14,26.6,5.29,4.58,5.63,5.36,12,3.65,18.83-.66.07-1.56-.11-1.93.25-4.15,4.08-9.56,4.81-14.9,5.74a2.94,2.94,0,0,1-.8-2.15,4.45,4.45,0,0,1,.14-1c2.7-9.92,2-11-8.34-12.61A4.15,4.15,0,0,1,358.27,256.09Z"/><path class="cls-21" d="M200.71,303c-1.61,2.06-.22,4.56-1,6.82-2.78,1.95-4.89-3.54-7.43-1-1.91,1.93-3.14,4.53-5.44,8-1.45-5.12-.44-9.22-1-13.13a25.43,25.43,0,0,1,3-11.92c2.65-2,3.23-5.29,4.81-7.93,7.93-13.3,20-18.58,34.84-19.08,1.47,0,3,.31,4.32-.64,1.72-.2,2,.65,1.58,2.1-1.74,6.22-3.45,12.44-5.4,19.45-3.66-4.58-7.89-5.73-12.71-4.61-5.46,1.25-8.78,5.12-11.43,9.71C202.63,294.58,201.66,298.79,200.71,303Z"/><path class="cls-22" d="M183.83,206.58c.48,1.87-.43,3.95,1.35,6.66,2.77-6.54,8.89-4.65,13.67-6.31.82,3.59-1.21,7.39.86,10.88,5.77-1.16,11.42-2.87,17.22-3.92,1.9-.35,3.82-1.13,5.73,0a2.13,2.13,0,0,1,0,.5c-1,5-.69,11.14-3.54,14.69s-9.26,2.45-14,3.92c-8,2.51-16,5.23-24.43,8C181.8,229.28,182.81,217.93,183.83,206.58Z"/><path class="cls-23" d="M260,155.88c-2.61,1.78-1.94,3.84-.46,5.92q4.75,6.66,0,13.26c-2.15,3-1.28,6.36-1.53,9.62-.22,2.75.8,5.62-.76,8.25-4.47-5.23-4.73-11.71-6-17.27-.41,3.34-1.3,7.53-2.23,11.71-.53,2.37-.62,5-3.07,6.55-5.15-1.49-9.56-.43-12.87,3.93-1.08,1.42-1.71,2.15-2.27-.2,2.2-13.33,4.88-26.56,8.16-39.67C245.7,154.82,252.61,153.18,260,155.88Z"/><path class="cls-24" d="M230.92,387.19c38.9-19.56,78.44-34.28,122.84-27.75-8.76.58-17.59.62-26.37,1.9a221.41,221.41,0,0,0-79.5,28C240.88,393.43,236.58,391.8,230.92,387.19Z"/><path class="cls-25" d="M182,292.8c-1,16.05-2,32.1-2.9,48.16a2.74,2.74,0,0,1-1.72,2.69c-4.21,1.87-8.4,3.78-13.15,5.91-.76-7.65.28-14.65.86-21.62.75-9.08.19-18.26,1.9-27.27C170.38,295,176.42,294.35,182,292.8Z"/><path class="cls-26" d="M373.06,178.74c-2.41,4.87-5.43,5.48-9,1.69-1.71-1.8-3-4-4.8-5.69-4.08-4-7-3.54-9.84,1.37a10.08,10.08,0,0,1-3.57,4.09c-1.55-.58-.34-2.6-1.69-3.23-1.07-7.59,1.12-15.41-1.61-22.88,1.59-3.78,4.92-4.31,8.44-4.62,3-.26,6.22.69,9.09-1,3.38,3.42,4,8.15,5.85,12.31C368.49,166.67,370.69,172.74,373.06,178.74Z"/><path class="cls-27" d="M397.11,152c.7.59,1.22,1.64.75,2.2-5.12,6.15-1.64,13.83-3.72,20.55-1.51,4.87-2.19,10-3.09,15.05a7.07,7.07,0,0,1-2.21,3.78c-1.46,1.51-3.29,1.59-5.1,1.24-2.4-.47-1.58-2.55-1.74-4.08-.14-1.3.25-2.7-.89-3.75A296.32,296.32,0,0,1,379,150.74c3.7,1.19,1.93,5,3.68,7.47.16-4.44,2.88-5.62,6.6-5.68C391.9,152.49,394.54,152.68,397.11,152Z"/><path class="cls-28" d="M434.61,180c2,1.45,4.37,1.59,6.63,2.17-2.4,9.38-17.2,20.16-29.52,18.84-4.84-.52-2.1-4.21-3-7.13,5.33,1.57,10.08,2.55,14.88.26a22.92,22.92,0,0,0,10.65-9.69c-3.07-1.13-5.91-2-8.6-3.19s-5.21-2.74-8.27-4.37c1.26,3.63,4.23,5.39,6.07,8.08-9.2.87-15.75-5.36-16-15a4.49,4.49,0,0,0-.25-6.2,23.48,23.48,0,0,1,0-8c4,3.49,6,8.59,9.68,12.4a38.63,38.63,0,0,0,8.24,7C428.55,176.2,431.91,177.43,434.61,180Z"/><path class="cls-29" d="M315,231.7l2.5,2c-13.71,1-26.56,2.11-39.27,4.19-21.95,3.58-44,6.83-64.94,14.85-3.37,1.3-5.25-.66-7.35-2.5-.61-3.42,2.31-3.61,4.27-4.4A123.57,123.57,0,0,1,241.55,238c18.8-2.26,37.62-4.35,56.49-5.87C303.66,231.63,309.32,232,315,231.7Z"/><path class="cls-30" d="M77.28,183.38c2.23-.38,4.61-.39,6.19-2.43,2.58-2.28,5.81-2.94,9-3.63,6.46-2.92,10.41-8.53,14.74-13.74l1.35,3.07a6.44,6.44,0,0,0,2,6.24,10.28,10.28,0,0,1-1.81,9.32c.19.43,0,.6-.4.51-4.34.82-7.64,4.93-12.89,3.88,1.64-3,4.68-5,6.19-8.87a70.87,70.87,0,0,1-17.36,7.76c5.35,9,13.18,11.44,22.54,10.37.86,6,.44,6.68-4.82,5.83C90.69,199.86,82,194.25,77.28,183.38Z"/><path class="cls-31" d="M149.08,266c.36,2.88-1.19,3.7-3.8,3.85-10.42.62-20,4.28-29.5,8.32-2.43,1-5.58,1.66-5.86,5.33a1.44,1.44,0,0,1-1.81,1.29c-7.17-2.07-11.69,3.37-17,6.25-3.55,1.93-7,3.67-11,4.18,2-4.13,6.19-5.67,9.63-7.95,14.59-9.66,30-17.5,47.43-20.74A47.23,47.23,0,0,1,149.08,266Z"/><path class="cls-32" d="M186,263c-.66,5.28-1.38,10.54-1.95,15.83-.17,1.64-1.23,2.29-2.42,2.85-4.48,2.12-9,4.18-14.57,6.76,1.15-7.08,1.16-13.43,3-19.59,3.74-3.15,8.26-4.66,12.77-6.22C183.86,262.27,185,262,186,263Z"/><path class="cls-33" d="M224.56,141c-8.27,11.28-19.41,16.11-33.28,14.73-1.84-.18-1.83-.29-.71-1.84a25.79,25.79,0,0,0,13.9-9.07C210.21,137.59,217.2,138.74,224.56,141Z"/><path class="cls-34" d="M164.13,154.31c1.18,2.6.56,3.63-2.47,3.29-14.44-1.64-27.79,2.62-40.84,8a15.41,15.41,0,0,1-4.67,1.28l-2.44-3.79C130.17,156.8,146.31,151,164.13,154.31Z"/><path class="cls-35" d="M333.89,254.84c-9.91-4.76-20.08-6.31-30.81-3a44.16,44.16,0,0,0-9.86,4.61,8.93,8.93,0,0,1-5.07,1.71,6.72,6.72,0,0,1-2.87-3.29c12.36-7.32,25.35-10.92,39.66-7.2C328.81,248.68,332.23,250.8,333.89,254.84Z"/><path class="cls-36" d="M383.1,248.11c-6-.75-11.29-4.07-17.55-4.33a41.33,41.33,0,0,0-25.8,7.27c-1.23-1.32-2.45-2.64-3.69-4,10.67-8.63,33.21-9.62,44-2.12A8,8,0,0,1,383.1,248.11Z"/><path class="cls-37" d="M429.53,236.43c1.52,3.73-.88,3.77-3.46,3.71-9.73-.24-19.47-.5-29.07,1.7a18,18,0,0,0-7.18,3.12l-4.56-5.25C400.35,235.18,414.87,235,429.53,236.43Z"/><path class="cls-38" d="M240.92,238.87c-10.33,2.46-20.79,4.42-30.69,8.44-1.66.67-3.66.85-4.33,3l-10-5.09c13.54-2.89,25.83-6.32,38.62-7.39C236.73,237.88,239.23,236,240.92,238.87Z"/><path class="cls-39" d="M232.78,264.14c-.74,1.15-.85,2.53-3.11,2.39-17.43-1.13-29.47,7.11-37.56,22.07-.71,1.29-.59,3.81-3.3,3.19,5.61-17.48,20.8-29.31,37.23-29.06A15.28,15.28,0,0,1,232.78,264.14Z"/><path class="cls-40" d="M240.92,238.87c-1.87-1.79-4.29-.43-6.36-1.08,8.7-1.1,17.39-2.37,26.12-3.26,16.34-1.66,32.7-3.27,49.14-3.62,1.71,0,3.65-.84,5.15.79-7.92,2.45-16.15.71-24.21,1.84-15.07,2.12-30.23,3.54-45.36,5.21C243.92,238.92,242.42,238.84,240.92,238.87Z"/><path class="cls-41" d="M226.85,159.69c-6.7-.5-13.14,1.22-19.64,2.35-5.24.91-10.41,2.16-15.64,3.12a16.17,16.17,0,0,0-8.55,4.69l-2.63-4.93c15.68-3.36,30.87-7,46.49-9.1C227.74,157.28,227.12,158.49,226.85,159.69Z"/><path class="cls-42" d="M224.56,141c-.17,0-.33,0-.5,0-8.53-.71-16.3-.13-22.05,7.92-2.35,3.29-6.86,5-11.44,5,6.26-4,12.79-7.73,16.41-14.69a2.31,2.31,0,0,1,2.31-1.53c5.11.44,10.23.8,15.32,1.44C225.87,139.25,224.93,140.33,224.56,141Z"/><path class="cls-43" d="M100.71,262.85c-.46,2.14-2.29,3.17-3.78,4.34-6,4.72-11.71,9.62-16.33,15.73-1.31,1.74-2.84,3.23-5.27,3.19a2.45,2.45,0,0,1,.09-3.57C82.91,274.77,90.71,267.4,100.71,262.85Z"/><path class="cls-44" d="M397.11,152c-1,3-3.63,1.88-5.48,1.73-5.06-.43-8.6.47-7.9,6.69a3.12,3.12,0,0,1-.52,1.35c-.06.12-.25.19-1,.73-2.55-3.57-1-8.29-3.24-11.73-.08-2.89,2.08-1.58,3.18-1.46,4.95.56,9.88,1.35,14.82,2.05A.6.6,0,0,0,397.11,152Z"/><path class="cls-45" d="M300.92,151.68c-7.79,1.56-15.88,2.28-22.07,8.15l-3.9-4.24a63.65,63.65,0,0,1,22.81-5.89,12.49,12.49,0,0,1,6.3.15C303.64,152,301.83,151,300.92,151.68Z"/><path class="cls-46" d="M259.86,257.75c-6.78,2.37-10.86,7.76-15,13.19-.55.72-.94,4-3.19,1.29,3.66-9,9.17-16,19.18-18.32C261.84,255.54,261,256.69,259.86,257.75Z"/><path class="cls-47" d="M94.1,346c1.6,4,.86,8,.34,12.07-.73,5.69-1.47,11.4,1.48,16.77-1.74.41-3.34,1.45-6,1.07Q92,360.94,94.1,346Z"/><path class="cls-48" d="M259.86,257.75l1-3.84c7.21-2.39,13.66-1.43,19.06,4.27-.7,1-1.47,2.06-2.81,1.18C271.64,255.75,265.76,256.71,259.86,257.75Z"/><path class="cls-49" d="M182,292.8c-4.5,3.58-10.66,4-15,7.87-.91-3.9.76-6.11,4.43-7.41,3.38-1.2,6.62-2.8,9.85-4.18C182.79,290.26,182.08,291.58,182,292.8Z"/><path class="cls-50" d="M186,263c-5.69.94-10.3,4.85-16,5.85-.48-2.62.4-4.15,3.07-5.17,4.25-1.61,8.24-3.91,12.85-4.72C187.3,260.37,186.18,261.71,186,263Z"/><path class="cls-51" d="M260,155.88c-7.08,0-14,1.31-21,2.1-.41-2.86,1.23-3.66,3.71-3.92,6.06-.64,12.1-1.38,18.21-.78A3.25,3.25,0,0,0,260,155.88Z"/><path class="cls-52" d="M360.06,148.46c-.38,3.27-2.86,2.66-4.92,2.56-4.52-.22-9-.27-12.61,3.07-.79-1.58-1.58-3.15-2.62-5.24A61.31,61.31,0,0,1,360.06,148.46Z"/><path class="cls-53" d="M300.92,151.68l2.3-1.5-5.46-.48c10.29-1.25,20.53-2.06,29.79,4.16-6,.68-11.55-2-17.44-2.4C307,151.22,304,152.38,300.92,151.68Z"/><path class="cls-54" d="M234.91,293.86c-7.73,4.13-16.51,4.61-24.71,7.12-.08-1.08-.73-2.49.9-2.87,7.63-1.78,15.28-3.47,22.93-5.14C234.25,292.93,234.61,293.55,234.91,293.86Z"/><path class="cls-55" d="M120.34,174.11c.44.67,1.26,1.34,1.25,2-.09,6.62,0,13.26-1.84,19.72L118,196A111.41,111.41,0,0,1,120.34,174.11Z"/><path class="cls-56" d="M98.76,301.86c2.28,6.2,1.41,12.44.14,18.67-.17.85-1.17,1-2,1.13C96.47,315,97.79,308.43,98.76,301.86Z"/><path class="cls-57" d="M115.29,227.71c2.9,4.68,2.14,13.47-1.41,16.39A62.24,62.24,0,0,1,115.29,227.71Z"/><path class="cls-58" d="M416,188.9c-7.37.44-8.46-.63-7.88-7.5C411.63,183.1,413.4,186.37,416,188.9Z"/><path class="cls-59" d="M222.66,213.88c-7.81.38-15.12,3.72-22.95,3.93,6.87-3.1,14.29-4.13,21.59-5.58C222.79,211.93,223.06,212.63,222.66,213.88Z"/><path class="cls-60" d="M425.67,269.83c-4.43.12-8.87.3-13.3.31-1.53,0-3.37.62-4.4-1.28,5.12-.28,10.24-.6,15.37-.81C424.45,268,426.32,267.39,425.67,269.83Z"/><path class="cls-61" d="M219.39,187.3c-5.3,2.94-11.07,2.73-16.84,2.54,5.06-2.09,10.54-2.44,15.8-3.66C219.08,186,219.59,186.42,219.39,187.3Z"/><path class="cls-62" d="M108.37,182.72a.77.77,0,0,0,.4-.51c1.68,6.11.45,7.8-5.71,7.49C103.8,186.52,107.14,185.38,108.37,182.72Z"/><path class="cls-63" d="M432,298.93c-6.21,2.34-12.63.62-19,.89-2.56.1-5.58,1.45-7.83-1.18Z"/><path class="cls-64" d="M110.58,172.89c-4.5-.64-4.84-1.69-2-6.24C109.85,168.54,112,170.16,110.58,172.89Z"/><path class="cls-65" d="M407.17,163.77c2.12-.15,2.93,1,3.07,3s-.82,3.07-2.82,3.21A15.19,15.19,0,0,1,407.17,163.77Z"/><path class="cls-66" d="M154.58,381.09a59.53,59.53,0,0,1,23.56-17c-1.18,4.5-3.29,8.49-3.2,13.22,2.78.88,5.51-.87,8.94-.17A98.31,98.31,0,0,1,169.25,383c-2.22-2.5.37-5.29-.87-7.72C163.75,376.45,160.42,380.67,154.58,381.09Z"/><path class="cls-67" d="M284,345.09c6.36-1.82,12.62-4.26,20-3.71-3.16,2.87-3.16,2.87-15.89,4.68C286.63,346.28,284.88,347.58,284,345.09Z"/><path class="cls-68" d="M319,339.08a54.55,54.55,0,0,1,22.08-.35c-4.17,1.63-8.58,1.23-12.91,1.42C325.12,340,321.82,341.77,319,339.08Z"/><path class="cls-69" d="M319,339.08c2.87,2,6.19.05,9.17,1.07-5.38,1.26-10.83.7-16.3.63A12.23,12.23,0,0,1,319,339.08Z"/><path class="cls-70" d="M284,345.09c1.09,1.49,2.77.51,4.1,1l-13.39,3.22A21.17,21.17,0,0,1,284,345.09Z"/><path class="cls-71" d="M112.75,352.9c-1.87-1.84-.84-4.07-.67-6.08a81.1,81.1,0,0,1,1.57-10.76c.68-3-.86-7.06,2.95-8.85,5.7-2.69,11.55-5.17,18.11-3.43,3.59,1,4.59,3.39,3.7,6.87-.8,3.13-2.77,5.58-4.44,8.22C128.68,346.25,121.29,350.44,112.75,352.9Z"/><path class="cls-72" d="M118.87,290.94c4.44-3.69,9.84-4.43,15.28-4.59,3.39-.1,5.58,1.79,5.75,5.46.42,3.94-2.19,6.29-4.59,8.78-4.45,4.63-9.47,8.36-15.68,10.28-2.34.79-3.13.14-2.77-2.44C117.66,302.62,118.21,296.78,118.87,290.94Z"/><path class="cls-73" d="M119.63,310.87c5.22-3.05,10.39-6.12,14.73-10.46a29.18,29.18,0,0,0,5.54-8.6c1.93,3.06.12,5.4-1.78,7.38-3,3.06-6.21,5.81-9.34,8.7C125.56,308.36,123.16,311.35,119.63,310.87Z"/><path class="cls-74" d="M112.75,352.9c7.79-3.58,15.23-7.7,21.22-14C129.39,347.32,122,351.51,112.75,352.9Z"/><path class="cls-75" d="M245.92,193.92l4.59-20.21.91-.11,5.76,19.33c0,.63-.07,1.26-.1,1.89a14.79,14.79,0,0,1-11,1.72C246,195.67,246,194.79,245.92,193.92Z"/><path class="cls-76" d="M246.11,196.54l11-1.72c.15.28.5.73.43.81C255.23,198.17,248.84,198.66,246.11,196.54Z"/><path class="cls-77" d="M300.91,175.91a14.45,14.45,0,0,1,.12-2.47c.51-2.23-1.6-5.47,1.29-6.6a13.59,13.59,0,0,1,12.86,1.32c2.92,1.93,3.22,4.87,2.69,8-1.1,6.33-8.46,12.61-14.9,12.82-2.93-2-1.37-5.07-1.74-7.66C301,179.51,301,177.7,300.91,175.91Z"/><path class="cls-78" d="M158,213.92c-4.71,11.1-13.89,16.63-25.5,20.63.93-9,.16-17.42,3.49-25.38,4.6-1.27,9.13-2.72,14-2.55S157.94,208.69,158,213.92Z"/><path class="cls-71" d="M137.87,174.91c4.11-5.15,9.85-4.14,15.25-3.75,3,.23,4.4,2.59,4.23,5.66.19,4.54-2.88,7.1-5.87,9.72a33.54,33.54,0,0,1-12.12,6.3l-3,.58.49-8.51Z"/><path class="cls-79" d="M139.36,192.84,151,186.09c.51.19,1.09.31,1.07,1a4.48,4.48,0,0,1-.1.82C147.66,189.39,144.31,193.17,139.36,192.84Z"/><path class="cls-80" d="M92.45,122.24c-3.41,9-3.71,17.78,1,26.37a2.6,2.6,0,0,1-1,3.82,4.22,4.22,0,0,1-5.11-.07,10.08,10.08,0,0,1-4.07-7.69C82.58,135.73,86.28,128.49,92.45,122.24Z"/><path class="cls-81" d="M92.5,177.32c-2.84,1.64-5.45,3.83-9,3.63-.43-3.29-3.45-5.11-4.54-8.08-2.1-5.74-3.54-11.52-2.59-18.31,3.31,7.27,4.59,15.43,13.76,17.72L87,173.86C88,176.59,90.29,176.87,92.5,177.32Z"/><path class="cls-82" d="M98.76,166.75c-1.66-.3-2.78-1.26-2.82-2.91a2.89,2.89,0,0,1,3-3.21,2.52,2.52,0,0,1,2.84,2.7C101.76,165.19,100.5,166.24,98.76,166.75Z"/><path class="cls-83" d="M358.27,256.09c.5,0,1,0,1.49-.08,4.23-.48,8.65-.79,11.38,3.17s.82,8-1.15,11.71c-2.93,4.08-6.41,7-11.9,5.39C357.89,269.55,357.33,262.81,358.27,256.09Z"/><path class="cls-84" d="M358.09,276.28a16.06,16.06,0,0,0,11.9-5.39c0,.68-.05,1.36-.07,2-2.13,1.54-3.95,3.5-6.56,4.33C361.37,277.89,359.5,278.47,358.09,276.28Z"/><path class="cls-85" d="M425.28,124.2c1.9-1,2.67.53,3.48,1.69,4,5.77,6.11,12.11,5.33,19.2-.37,3.32-1.82,6-5.12,7.34-1.85.76-3.21-.13-4.5-1.23-1-.89-.88-1.93-.45-3.15C427.87,137,428,133.51,425.28,124.2Z"/><path class="cls-86" d="M434.61,180a22.85,22.85,0,0,1-9.52-4.86c2.58.27,5,0,6.78-2.49L429.33,171c8.63-2.69,10-10.09,12.15-18.51C443.37,163.69,440,172.1,434.61,180Z"/><path class="cls-87" d="M420.32,159.84c1.8.25,3.2,1.14,3.33,3a2.61,2.61,0,0,1-2.63,2.91,3,3,0,0,1-3-2.7C417.72,161.37,418.69,160.29,420.32,159.84Z"/><path class="cls-88" d="M307.12,271.66a13.89,13.89,0,0,1,.24-1.46c.76-2.58-2.29-6.42,2-7.69,3.8-1.14,8.05-1.73,11.16,1.73,2.74,3,1.71,6.47.14,9.76-.28.59-.55,1.19-.83,1.79-2.16,3.37-4.74,6.1-9.16,6.08-2.25.23-3.13-.71-3.08-3S307.3,274.05,307.12,271.66Z"/><path class="cls-89" d="M310.68,281.87c3.29-1.68,6.58-3.35,9.16-6.08-.29,1-.58,2.11-.88,3.16C316.27,280.11,314.72,284.53,310.68,281.87Z"/><path class="cls-90" d="M152,187.14l-1.07-1c2.57-2.78,5.41-5.38,6.4-9.26C159.82,182.46,154.89,184.26,152,187.14Z"/><path class="cls-91" d="M272.07,278c0,7.13.46,14.28-1.07,21.34-.81,3.76-1.79,7.43-4.14,10.56-1.65,2.22-3.62,4.12-6.63,3.51-2.72-.56-4-2.74-4.68-5.29-.48-1.75-1-3.48-1.53-5.21-.07-8.43-.84-16.92,1.79-25.15a26.89,26.89,0,0,1,1.65-4.64c1.7-3.16,3.92-6.14,8-5.68s5,3.83,5.64,7.24A30.18,30.18,0,0,0,272.07,278Z"/></g></g></svg>